<svg version="1.1" xmlns="http://www.w3.org/2000/svg" xmlns:xlink="http://www.w3.org/1999/xlink" x="0px" y="0px"
	 viewBox="0 0 16 16" style="enable-background:new 0 0 16 16;" xml:space="preserve">
<style type="text/css">
	.st0{fill:#FFFFFF;}
	.st1{fill:#3D69A8;}
	.st2{fill:#29993A;}
	.st3{fill:#8FCCE7;}
	.st4{fill:#6CA0CF;}
</style>
<g id="图层_6">
	<polygon class="st0" points="11,3 11,1 3,1 3,3 1,3 1,11 14,11 14,3 	"/>
</g>
<g id="_x31_">
	<g>
		<rect x="5" y="14" class="st1" width="4" height="1"/>
		<polygon class="st1" points="14,12 13,12 13,13 11,13 11,14 14,14 14,13 15,13 15,12 15,10 14,10 		"/>
		<rect x="14" y="7" class="st1" width="1" height="1"/>
	</g>
</g>
<g id="_x32_">
	<g>
		<polygon points="2,7 2,6 3,6 3,5 2,5 2,3 1,3 1,6 0,6 0,11 1,11 1,7 		"/>
		<rect x="2" y="2" width="1" height="1"/>
		<rect x="3" y="1" width="1" height="1"/>
		<rect x="4" width="3" height="1"/>
		<rect x="7" y="1" width="1" height="1"/>
		<rect x="8" width="3" height="1"/>
		<polygon points="12,4 12,3 14,3 14,2 12,2 12,1 11,1 11,4 		"/>
		<rect x="14" y="3" width="1" height="1"/>
		<polygon points="15,4 15,8 13,8 13,9 14,9 14,10 15,10 15,9 16,9 16,8 16,4 		"/>
		<rect x="15" y="10" width="1" height="3"/>
		<rect x="14" y="13" width="1" height="1"/>
		<rect x="11" y="14" width="3" height="1"/>
		<rect x="10" y="13" width="1" height="1"/>
		<rect x="9" y="14" width="1" height="1"/>
		<rect x="5" y="15" width="4" height="1"/>
		<rect x="4" y="14" width="1" height="1"/>
		<polygon points="4,12 2,12 2,13 3,13 3,14 4,14 4,13 		"/>
		<rect x="1" y="11" width="1" height="1"/>
	</g>
</g>
<g id="_x33_">
	<g>
		<polygon class="st2" points="5,3 5,4 4,4 4,6 5,6 5,7 6,7 6,6 7,6 7,5 10,5 10,3 		"/>
		<polygon class="st2" points="12,5 10,5 10,7 8,7 8,8 7,8 7,10 9,10 9,9 11,9 11,8 12,8 		"/>
		<rect x="7" y="11" class="st2" width="2" height="2"/>
	</g>
</g>
<g id="_x34_">
	<g>
		<polygon class="st3" points="3,10 3,9 2,9 2,8 1,8 1,10 2,10 2,11 3,11 4,11 4,12 5,12 5,13 7,13 7,11 9,11 9,10 		"/>
		<polygon class="st3" points="14,4 14,5 13,5 13,6 12,6 12,8 11,8 11,10 10,10 10,11 9,11 9,13 10,13 10,12 12,12 12,11 13,11 
			13,8 14,8 14,7 15,7 15,4 		"/>
		<rect x="2" y="4" class="st3" width="1" height="1"/>
		<rect x="3" y="5" class="st3" width="1" height="1"/>
	</g>
</g>
<g id="_x35_">
	<g>
		<rect x="1" y="10" class="st4" width="1" height="1"/>
		<rect x="2" y="11" class="st4" width="2" height="1"/>
		<polygon class="st4" points="5,12 4,12 4,14 5,14 10,14 10,13 5,13 		"/>
		<polygon class="st4" points="13,9 13,11 12,11 12,12 10,12 10,13 13,13 13,12 14,12 14,9 		"/>
	</g>
</g>
</svg>
