<svg xmlns="http://www.w3.org/2000/svg" xmlns:xlink="http://www.w3.org/1999/xlink" xml:space="preserve" id="图层_1" x="0" y="0" style="enable-background:new 0 0 959.2 186" version="1.1" viewBox="0 0 959.2 186"><style>.st1{fill:#00ffac}</style><path id="图层_4" d="M179.5 0H6.5C2.9 0 0 2.9 0 6.5v173c0 3.6 2.9 6.5 6.5 6.5h173c3.6 0 6.5-2.9 6.5-6.5V6.5c0-3.6-2.9-6.5-6.5-6.5z" style="fill:#33d"/><g id="图层_2_1_"><path d="M277 108.8h-38.8c.1 6.1 1.8 10.9 4.9 14.2 3.2 3.3 7.5 5 12.9 5 6.2 0 11.9-2 17-6.1v8.3c-4.8 3.5-11.2 5.3-19.1 5.3-7.8 0-13.9-2.5-18.3-7.5-4.5-5-6.7-12-6.7-21.1 0-8.6 2.5-15.5 7.3-20.9 4.8-5.4 10.8-8.1 18.1-8.1s12.8 2.3 16.7 7c4 4.7 5.9 11.1 5.9 19.4l.1 4.5zm-9-7.4c0-5.1-1.3-9-3.6-11.9-2.3-2.8-5.8-4.2-10.1-4.2-4.1 0-7.6 1.5-10.6 4.5s-4.7 6.9-5.4 11.7l29.7-.1zM318 133.6c-2.1 1.1-4.8 1.7-8.2 1.7-9.6 0-14.4-5.4-14.4-16.1V86.7H286v-7.5h9.4V65.7l8.8-2.9v16.3H318v7.5h-13.9v31c0 3.7.6 6.3 1.9 7.9 1.3 1.6 3.3 2.4 6.2 2.4 2.2 0 4.1-.6 5.8-1.8v7.5zM360.6 88c-1.5-1.2-3.8-1.8-6.7-1.8-3.8 0-6.9 1.8-9.4 5.3s-3.8 8.4-3.8 14.5v28h-8.8V79h8.8v11.3h.2c1.3-3.9 3.2-6.9 5.8-9 2.6-2.2 5.4-3.2 8.7-3.2 2.3 0 4 .2 5.3.8V88h-.1zM395.3 135.4c-8.1 0-14.6-2.6-19.4-7.7-4.8-5.1-7.3-12-7.3-20.4 0-9.2 2.5-16.5 7.5-21.6 5.1-5.2 11.9-7.8 20.4-7.8 8.2 0 14.6 2.5 19.1 7.6 4.6 5 6.9 12 6.9 21 0 8.8-2.5 15.8-7.4 21.1-4.9 5.2-11.4 7.8-19.8 7.8zm.6-50.1c-5.6 0-10.1 1.9-13.4 5.8-3.3 3.9-4.9 9.2-4.9 15.9 0 6.5 1.6 11.7 4.9 15.4s7.8 5.6 13.4 5.6c5.6 0 10.1-1.8 13.2-5.5 3.1-3.7 4.6-8.9 4.6-15.7 0-6.9-1.5-12.2-4.6-15.9-3.1-3.8-7.4-5.6-13.2-5.6zM466 60.4c-1.8-1-3.6-1.5-5.9-1.5-6.1 0-9.3 3.9-9.3 11.7v8.5h12.9v7.5h-12.9v47.5h-8.7V86.6h-9.4v-7.5h9.4v-8.9c0-5.8 1.6-10.3 4.9-13.7 3.3-3.4 7.5-5 12.5-5 2.7 0 4.8.3 6.3 1l.2 7.9zM498.5 135.4c-8.1 0-14.6-2.6-19.4-7.7-4.8-5.1-7.3-12-7.3-20.4 0-9.2 2.6-16.5 7.5-21.6 5.1-5.2 11.9-7.8 20.4-7.8 8.2 0 14.6 2.5 19.1 7.6 4.6 5 6.9 12 6.9 21 0 8.8-2.5 15.8-7.4 21.1-4.9 5.2-11.5 7.8-19.8 7.8zm.5-50.1c-5.6 0-10.1 1.9-13.4 5.8-3.3 3.9-4.9 9.2-4.9 15.9 0 6.5 1.6 11.7 4.9 15.4 3.3 3.7 7.8 5.6 13.4 5.6s10.1-1.8 13.2-5.5c3.1-3.7 4.6-8.9 4.6-15.7 0-6.9-1.5-12.2-4.6-15.9-3.1-3.8-7.4-5.6-13.2-5.6zM570.7 88c-1.5-1.2-3.8-1.8-6.7-1.8-3.8 0-6.9 1.8-9.4 5.3-2.6 3.5-3.8 8.4-3.8 14.5v28H542V79h8.8v11.3h.2c1.3-3.9 3.2-6.9 5.8-9 2.6-2.2 5.4-3.2 8.6-3.2 2.3 0 4 .2 5.3.8V88zM683.8 79.1l-16.4 55h-9.2l-11.3-39.4c-.5-1.5-.7-3.2-.8-5.1h-.2c-.1 1.3-.5 3-1.2 5l-12.3 39.5h-8.8l-16.7-55h9.2l11.4 41.4c.4 1.2.6 2.9.7 4.9h.5c.1-1.6.5-3.3.9-5l12.7-41.2h8l11.4 41.5c.4 1.3.6 3 .8 4.9h.5c.1-1.4.4-3 .9-4.9L675 79.2l8.8-.1zM740.7 134.1h-8.8v-8.7h-.2c-3.6 6.7-9.3 10-16.9 10-13 0-19.6-7.8-19.6-23.4V79.1h8.7v31.5c0 11.6 4.5 17.4 13.3 17.4 4.3 0 7.9-1.6 10.6-4.8 2.8-3.2 4.1-7.3 4.1-12.4V79.1h8.8v55zM786 133.6c-2.1 1.1-4.8 1.7-8.2 1.7-9.6 0-14.4-5.4-14.4-16.1V86.7H754v-7.5h9.4V65.7l8.8-2.9v16.3H786v7.5h-13.9v31c0 3.7.6 6.3 1.9 7.9s3.3 2.4 6.2 2.4c2.2 0 4.1-.6 5.8-1.8v7.5z" class="st1"/></g><path id="图层_2_2_" d="M118.5 132.8h-10l-11.9-23.5c-1.1-2.2-2.2-4-3.2-5.6-1-1.5-2.1-2.8-3.2-3.8s-2.2-1.7-3.5-2.1-2.6-.8-4.1-.8h-6.9v35.7h-8.4v-84h21.3c3.1 0 6 .5 8.6 1.4s4.9 2.3 6.9 4.2 3.5 4.2 4.6 7 1.6 6.1 1.6 9.8c0 2.9-.4 5.6-1.1 8.1s-1.8 4.6-3.2 6.5-3 3.5-5 4.9-4.1 2.4-6.6 3.1v.3c1.2.6 2.2 1.3 3.1 2.1.9.8 1.7 1.8 2.5 2.8s1.6 2.3 2.4 3.7c.8 1.4 1.6 3 2.6 4.8l13.5 25.4zM75.7 57.7v30.5h11.4c2.1 0 4-.4 5.8-1.1s3.3-1.8 4.6-3.2c1.3-1.4 2.3-3.1 3-5.1s1.1-4.3 1.1-6.8c0-4.5-1.2-8-3.7-10.5s-6.1-3.8-10.7-3.8H75.7z" class="st1"/><g id="图层_5"><defs><path id="SVGID_1_" d="M831 28h128v128H831z"/></defs><clipPath id="SVGID_2_"><use xlink:href="#SVGID_1_" style="overflow:visible"/></clipPath><path d="M919 52V36h-64v16h-16v64h104V52z" style="clip-path:url(#SVGID_2_);fill:#fff"/><defs><path id="SVGID_3_" d="M831 28h128v128H831z"/></defs><clipPath id="SVGID_4_"><use xlink:href="#SVGID_3_" style="overflow:visible"/></clipPath><path d="M871 140h32v8h-32z" style="clip-path:url(#SVGID_4_);fill:#3d69a8"/><defs><path id="SVGID_5_" d="M831 28h128v128H831z"/></defs><clipPath id="SVGID_6_"><use xlink:href="#SVGID_5_" style="overflow:visible"/></clipPath><path d="M943 124h-8v8h-16v8h24v-8h8v-24h-8z" style="clip-path:url(#SVGID_6_);fill:#3d69a8"/><defs><path id="SVGID_7_" d="M831 28h128v128H831z"/></defs><clipPath id="SVGID_8_"><use xlink:href="#SVGID_7_" style="overflow:visible"/></clipPath><path d="M943 84h8v8h-8z" style="clip-path:url(#SVGID_8_);fill:#3d69a8"/><defs><path id="SVGID_9_" d="M831 28h128v128H831z"/></defs><clipPath id="SVGID_10_"><use xlink:href="#SVGID_9_" style="overflow:visible"/></clipPath><path d="M839 52v24h-8v40h8V84h8v-8h8v-8h-8V52z" style="clip-path:url(#SVGID_10_)"/><defs><path id="SVGID_11_" d="M831 28h128v128H831z"/></defs><clipPath id="SVGID_12_"><use xlink:href="#SVGID_11_" style="overflow:visible"/></clipPath><path d="M847 44h8v8h-8z" style="clip-path:url(#SVGID_12_)"/><defs><path id="SVGID_13_" d="M831 28h128v128H831z"/></defs><clipPath id="SVGID_14_"><use xlink:href="#SVGID_13_" style="overflow:visible"/></clipPath><path d="M855 36h8v8h-8z" style="clip-path:url(#SVGID_14_)"/><defs><path id="SVGID_15_" d="M831 28h128v128H831z"/></defs><clipPath id="SVGID_16_"><use xlink:href="#SVGID_15_" style="overflow:visible"/></clipPath><path d="M863 28h24v8h-24z" style="clip-path:url(#SVGID_16_)"/><defs><path id="SVGID_17_" d="M831 28h128v128H831z"/></defs><clipPath id="SVGID_18_"><use xlink:href="#SVGID_17_" style="overflow:visible"/></clipPath><path d="M887 36h8v8h-8z" style="clip-path:url(#SVGID_18_)"/><defs><path id="SVGID_19_" d="M831 28h128v128H831z"/></defs><clipPath id="SVGID_20_"><use xlink:href="#SVGID_19_" style="overflow:visible"/></clipPath><path d="M895 28h24v8h-24z" style="clip-path:url(#SVGID_20_)"/><defs><path id="SVGID_21_" d="M831 28h128v128H831z"/></defs><clipPath id="SVGID_22_"><use xlink:href="#SVGID_21_" style="overflow:visible"/></clipPath><path d="M927 60v-8h16v-8h-16v-8h-8v24z" style="clip-path:url(#SVGID_22_)"/><defs><path id="SVGID_23_" d="M831 28h128v128H831z"/></defs><clipPath id="SVGID_24_"><use xlink:href="#SVGID_23_" style="overflow:visible"/></clipPath><path d="M943 52h8v8h-8z" style="clip-path:url(#SVGID_24_)"/><defs><path id="SVGID_25_" d="M831 28h128v128H831z"/></defs><clipPath id="SVGID_26_"><use xlink:href="#SVGID_25_" style="overflow:visible"/></clipPath><path d="M951 60v32h-16v8h8v8h8v-8h8V60z" style="clip-path:url(#SVGID_26_)"/><defs><path id="SVGID_27_" d="M831 28h128v128H831z"/></defs><clipPath id="SVGID_28_"><use xlink:href="#SVGID_27_" style="overflow:visible"/></clipPath><path d="M951 108h8v24h-8z" style="clip-path:url(#SVGID_28_)"/><defs><path id="SVGID_29_" d="M831 28h128v128H831z"/></defs><clipPath id="SVGID_30_"><use xlink:href="#SVGID_29_" style="overflow:visible"/></clipPath><path d="M943 132h8v8h-8z" style="clip-path:url(#SVGID_30_)"/><defs><path id="SVGID_31_" d="M831 28h128v128H831z"/></defs><clipPath id="SVGID_32_"><use xlink:href="#SVGID_31_" style="overflow:visible"/></clipPath><path d="M919 140h24v8h-24z" style="clip-path:url(#SVGID_32_)"/><defs><path id="SVGID_33_" d="M831 28h128v128H831z"/></defs><clipPath id="SVGID_34_"><use xlink:href="#SVGID_33_" style="overflow:visible"/></clipPath><path d="M911 132h8v8h-8z" style="clip-path:url(#SVGID_34_)"/><defs><path id="SVGID_35_" d="M831 28h128v128H831z"/></defs><clipPath id="SVGID_36_"><use xlink:href="#SVGID_35_" style="overflow:visible"/></clipPath><path d="M903 140h8v8h-8z" style="clip-path:url(#SVGID_36_)"/><defs><path id="SVGID_37_" d="M831 28h128v128H831z"/></defs><clipPath id="SVGID_38_"><use xlink:href="#SVGID_37_" style="overflow:visible"/></clipPath><path d="M871 148h32v8h-32z" style="clip-path:url(#SVGID_38_)"/><defs><path id="SVGID_39_" d="M831 28h128v128H831z"/></defs><clipPath id="SVGID_40_"><use xlink:href="#SVGID_39_" style="overflow:visible"/></clipPath><path d="M863 140h8v8h-8z" style="clip-path:url(#SVGID_40_)"/><defs><path id="SVGID_41_" d="M831 28h128v128H831z"/></defs><clipPath id="SVGID_42_"><use xlink:href="#SVGID_41_" style="overflow:visible"/></clipPath><path d="M863 124h-16v8h8v8h8v-8z" style="clip-path:url(#SVGID_42_)"/><defs><path id="SVGID_43_" d="M831 28h128v128H831z"/></defs><clipPath id="SVGID_44_"><use xlink:href="#SVGID_43_" style="overflow:visible"/></clipPath><path d="M839 116h8v8h-8z" style="clip-path:url(#SVGID_44_)"/><defs><path id="SVGID_45_" d="M831 28h128v128H831z"/></defs><clipPath id="SVGID_46_"><use xlink:href="#SVGID_45_" style="overflow:visible"/></clipPath><path d="M871 52v8h-8v16h8v8h8v-8h8v-8h24V52z" style="clip-path:url(#SVGID_46_);fill:#29993a"/><defs><path id="SVGID_47_" d="M831 28h128v128H831z"/></defs><clipPath id="SVGID_48_"><use xlink:href="#SVGID_47_" style="overflow:visible"/></clipPath><path d="M927 68h-16v16h-16v8h-8v16h16v-8h16v-8h8z" style="clip-path:url(#SVGID_48_);fill:#29993a"/><defs><path id="SVGID_49_" d="M831 28h128v128H831z"/></defs><clipPath id="SVGID_50_"><use xlink:href="#SVGID_49_" style="overflow:visible"/></clipPath><path d="M887 116h16v16h-16z" style="clip-path:url(#SVGID_50_);fill:#29993a"/><defs><path id="SVGID_51_" d="M831 28h128v128H831z"/></defs><clipPath id="SVGID_52_"><use xlink:href="#SVGID_51_" style="overflow:visible"/></clipPath><path d="M855 108v-8h-8v-8h-8v16h8v8h16v8h8v8h16v-16h16v-8z" style="clip-path:url(#SVGID_52_);fill:#8fcce7"/><defs><path id="SVGID_53_" d="M831 28h128v128H831z"/></defs><clipPath id="SVGID_54_"><use xlink:href="#SVGID_53_" style="overflow:visible"/></clipPath><path d="M943 60v8h-8v8h-8v16h-8v16h-8v8h-8v16h8v-8h16v-8h8V92h8v-8h8V60z" style="clip-path:url(#SVGID_54_);fill:#8fcce7"/><defs><path id="SVGID_55_" d="M831 28h128v128H831z"/></defs><clipPath id="SVGID_56_"><use xlink:href="#SVGID_55_" style="overflow:visible"/></clipPath><path d="M847 60h8v8h-8z" style="clip-path:url(#SVGID_56_);fill:#8fcce7"/><defs><path id="SVGID_57_" d="M831 28h128v128H831z"/></defs><clipPath id="SVGID_58_"><use xlink:href="#SVGID_57_" style="overflow:visible"/></clipPath><path d="M855 68h8v8h-8z" style="clip-path:url(#SVGID_58_);fill:#8fcce7"/><defs><path id="SVGID_59_" d="M831 28h128v128H831z"/></defs><clipPath id="SVGID_60_"><use xlink:href="#SVGID_59_" style="overflow:visible"/></clipPath><path d="M839 108h8v8h-8z" style="clip-path:url(#SVGID_60_);fill:#6ca0cf"/><defs><path id="SVGID_61_" d="M831 28h128v128H831z"/></defs><clipPath id="SVGID_62_"><use xlink:href="#SVGID_61_" style="overflow:visible"/></clipPath><path d="M847 116h16v8h-16z" style="clip-path:url(#SVGID_62_);fill:#6ca0cf"/><defs><path id="SVGID_63_" d="M831 28h128v128H831z"/></defs><clipPath id="SVGID_64_"><use xlink:href="#SVGID_63_" style="overflow:visible"/></clipPath><path d="M871 124h-8v16h48v-8h-40z" style="clip-path:url(#SVGID_64_);fill:#6ca0cf"/><defs><path id="SVGID_65_" d="M831 28h128v128H831z"/></defs><clipPath id="SVGID_66_"><use xlink:href="#SVGID_65_" style="overflow:visible"/></clipPath><path d="M935 100v16h-8v8h-16v8h24v-8h8v-24z" style="clip-path:url(#SVGID_66_);fill:#6ca0cf"/></g></svg>